<svg height="472pt" viewBox="0 -67 472 472" width="472pt" xmlns="http://www.w3.org/2000/svg"><g fill="#bcbcbc"><path d="m366.894531 8.113281-13.789062-8.113281-21.210938 36.054688h-131.894531v16h122.480469l-47.054688 80h-59.425781v16h68.574219l23.53125-40h27.894531v72h-136v16h136v72h-192v16h117.351562l53.328126 53.320312 11.3125-11.3125-42.015626-42.007812h156.023438v-16h-88v-72h88v-16h-88v-72h88v-16h-122.480469l23.527344-40h98.953125v-16h-89.542969zm0 0"/><path d="m456 180.054688h16v16h-16zm0 0"/><path d="m456 92.054688h16v16h-16zm0 0"/><path d="m456 36.054688h16v16h-16zm0 0"/><path d="m456 268.054688h16v16h-16zm0 0"/></g><path d="m96 12.054688c-53.019531 0-96 42.980468-96 96 0 53.019531 96 200 96 200s96-146.980469 96-200c0-53.019532-42.980469-96-96-96zm0 144c-26.507812 0-48-21.488282-48-48 0-26.507813 21.492188-48 48-48s48 21.492187 48 48c0 26.511718-21.492188 48-48 48zm0 0" fill="#e65d52"/></svg>