<svg height="512" viewBox="0 0 58 50" width="512" xmlns="http://www.w3.org/2000/svg"><g id="Page-1" fill="none" fill-rule="evenodd"><g id="012---Trail-Map" fill-rule="nonzero"><path id="Shape" d="m56 0h-18.46c-.18107.0017641-.3616845.01848767-.54.05v44c.1783155-.0315123.35893-.0482359.54-.05h18.46c1.1032019-.0032948 1.9967052-.8967981 2-2v-40c-.0032948-1.10320187-.8967981-1.9967052-2-2zm-54 6c-1.10320187.0032948-1.9967052.89679813-2 2v40c.0032948 1.1032019.89679813 1.9967052 2 2h18.46c.18107-.0017641.3616845-.0184877.54-.05v-44c-.1783155.03151233-.35893.0482359-.54.05z" fill="#f9eab0"/><path id="Shape" d="m37 .05v44c-.1735431.0326385-.3441155.0794623-.51.14l-14.98 5.62c-.1658845.0605377-.3364569.1073615-.51.14v-44c.1735431-.0326385.3441155-.07946228.51-.14l14.98-5.62c.1658845-.06053772.3364569-.1073615.51-.14z" fill="#f3d55b"/><path id="Shape" d="m21 39.44v6.29l-.22.08c-.3350649.1283441-.6912063.1927888-1.05.19h-14.73c-.55228475 0-1-.4477153-1-1v-6s2-4 8-4c3.42 0 5.86 2.39 9 4.44z" fill="#4fba6f"/><path id="Shape" d="m21 9.97v13.38c-3.86-1.73-5.94-6.35-10-6.35-2.88689135-.0379447-5.56703825 1.4935679-7 4v-10c0-.5522847.44771525-1 1-1h15.46c.1804158-.00002257.3606919-.0100379.54-.03z" fill="#fff"/><path id="Shape" d="m21 23.35v16.09c-3.14-2.05-5.58-4.44-9-4.44-6 0-8 4-8 4v-18c1.43296175-2.5064321 4.11310865-4.0379447 7-4 4.06 0 6.14 4.62 10 6.35z" fill="#bdc3c7"/><path id="Shape" d="m30 42.35-9 3.38v-6.29c2.6289917 1.8731848 5.7719983 2.8894236 9 2.91z" fill="#24ae5f"/><path id="Shape" d="m37 4.27v12.73c-5 0-7 7-13 7-1.0350375.0009346-2.0581704-.2207442-3-.65v-13.38c.6533603-.04202825 1.2969508-.18018118 1.91-.41z" fill="#ecf0f1"/><path id="Shape" d="m37 17v23.03c-.6533603.0420283-1.2969508.1801812-1.91.41l-5.09 1.91c-3.2280017-.0205764-6.3710083-1.0368152-9-2.91v-16.09c.9418296.4292558 1.9649625.6509346 3 .65 6 0 8-7 13-7z" fill="#95a5a5"/><path id="Shape" d="m54 5v21c-7 0-8.65-2.55-10-5-1.3639981-2.5743092-4.0896423-4.1318201-7-4v-12.73l.22-.08c.3350649-.12834413.6912063-.19278876 1.05-.19h14.73c.5522847 0 1 .44771525 1 1z" fill="#fff"/><path id="Shape" d="m54 26v10.65c-.6744279-2.1897021-2.708924-3.6748843-5-3.65-5 0-5 7-12 7v-23c2.9103577-.1318201 5.6360019 1.4256908 7 4 1.35 2.45 3 5 10 5z" fill="#bdc3c7"/><path id="Shape" d="m54 36.65v2.35c0 .5522847-.4477153 1-1 1h-15.46c-.1804158.0000226-.3606919.0100379-.54.03v-.03c7 0 7-7 12-7 2.291076-.0248843 4.3255721 1.4602979 5 3.65z" fill="#4fba6f"/><path id="Shape" d="m49.414 11 1.293-1.293c.3789722-.39237889.3735524-1.01608478-.0121814-1.40181858-.3857338-.38573379-1.0094397-.39115363-1.4018186-.01218142l-1.293 1.293-1.293-1.293c-.3923789-.37897221-1.0160848-.37355237-1.4018186.01218142-.3857338.3857338-.3911536 1.00943969-.0121814 1.40181858l1.293 1.293-1.293 1.293c-.2599566.2510745-.3642126.6228779-.2726972.9725073.0915155.3496295.3645604.6226744.7141899.7141899.3496294.0915154.7214328-.0127406.9725073-.2726972l1.293-1.293 1.293 1.293c.3923789.3789722 1.0160848.3735524 1.4018186-.0121814s.3911536-1.0094397.0121814-1.4018186z" fill="#ff5364"/><path id="Shape" d="m10.409 24.255-2.162 2.256c-.2418972.2476866-.3154401.6145026-.18771756.9362942.12772254.3217917.43280402.5383275.77871756.5527058h4.324c.3459135-.0143783.650995-.2309141.7787176-.5527058.1277225-.3217916.0541796-.6886076-.1877176-.9362942l-2.162-2.256c-.1534318-.1628463-.3672585-.255167-.591-.255167s-.4375682.0923207-.591.255167z" fill="#ff5364"/><path id="Shape" d="m29.5 34h-2c-1.9329966 0-3.5-1.5670034-3.5-3.5 0-.8284271-.6715729-1.5-1.5-1.5h-4.5c-.5522847 0-1-.4477153-1-1s.4477153-1 1-1h4.5c1.9329966 0 3.5 1.5670034 3.5 3.5 0 .8284271.6715729 1.5 1.5 1.5h2c1.3807119 0 2.5-1.1192881 2.5-2.5.0027556-2.4841391 2.0158609-4.4972444 4.5-4.5h5.5c2.7600532-.0033061 4.9966939-2.2399468 5-5v-4c0-.5522847.4477153-1 1-1s1 .4477153 1 1v4c-.0044086 3.8641657-3.1358343 6.9955914-7 7h-5.5c-1.3807119 0-2.5 1.1192881-2.5 2.5-.0027556 2.4841391-2.0158609 4.4972444-4.5 4.5z" fill="#3b97d3"/></g></g></svg>