<?xml version="1.0" encoding="iso-8859-1"?>
<!-- Generator: Adobe Illustrator 19.0.0, SVG Export Plug-In . SVG Version: 6.00 Build 0)  -->
<svg version="1.1" id="Capa_1" xmlns="http://www.w3.org/2000/svg" xmlns:xlink="http://www.w3.org/1999/xlink" x="0px" y="0px"
	 viewBox="0 0 512.732 512.732" style="enable-background:new 0 0 512.732 512.732;" xml:space="preserve">
<path style="fill:#E8EAE9;" d="M512.366,479.299l-42.667-254.933c-2.133-12.8-20.267-22.4-40.533-22.4h-345.6
	c-20.267,0-38.4,9.6-40.533,22.4L0.366,479.299c-3.2,18.133,14.933,33.067,40.533,33.067h430.933
	C497.433,512.366,515.566,497.433,512.366,479.299z"/>
<polygon style="fill:#67C6B9;" points="432.366,224.366 80.366,224.366 45.166,479.299 467.566,479.299 "/>
<path style="fill:#435B6C;" d="M443.033,304.366l-2.133-17.067c-18.133,2.133-39.467,4.267-60.8,6.4
	c-8.533-7.467-21.333-12.8-35.2-19.2s-29.867-13.867-44.8-23.467c-12.8-8.533-20.267-17.067-22.4-25.6h-12.8
	c2.133,9.6,9.6,20.267,25.6,30.933c16,10.667,32,18.133,45.867,24.533c11.733,5.333,21.333,9.6,27.733,14.933
	c-4.267,0-9.6,1.067-13.867,1.067c-33.067,3.2-48,9.6-57.6,18.133c-12.8-1.067-33.067-5.333-46.933-26.667
	c-22.4-34.133-32-42.667-68.267-40.533c-14.933,1.067-35.2-10.667-50.133-22.4h-17.067c17.067,13.867,44.8,30.933,68.267,29.867
	c21.333-1.067,29.867,0,42.667,17.067c-7.467,7.467-38.4,34.133-82.133,37.333c-25.6,2.133-50.133-1.067-70.4-6.4l-1.067,9.6
	c17.067,4.267,37.333,6.4,55.467,6.4c5.333,0,10.667,0,16-1.067c42.667-3.2,74.667-25.6,87.467-37.333c2.133,3.2,4.267,6.4,6.4,9.6
	c13.867,21.333,35.2,29.867,50.133,32l-1.067,1.067c-10.667,10.667-20.267,21.333-84.267,24.533
	c-69.333,3.2-113.067,21.333-140.8,39.467l-4.267,32c17.067-18.133,58.667-49.067,147.2-53.333c13.867-1.067,25.6-2.133,35.2-3.2
	c-9.6,18.133-20.267,52.267-1.067,85.333c5.333,9.6,13.867,19.2,23.467,26.667c-3.2,1.067-7.467,3.2-10.667,4.267h39.467
	c-1.067-1.067-3.2-2.133-5.333-2.133c53.333-25.6,102.4-58.667,87.467-87.467c-8.533-16-5.333-20.267,2.133-32
	c4.267-6.4,10.667-16,16-30.933c2.133-6.4,3.2-12.8,2.133-17.067C408.899,307.566,427.033,305.433,443.033,304.366z
	 M374.766,323.566c-5.333,13.867-10.667,22.4-16,29.867c-8.533,12.8-12.8,19.2-2.133,38.4c11.733,22.4-34.133,52.267-85.333,76.8
	c-9.6-7.467-17.067-16-22.4-24.533c-20.267-34.133-4.267-69.333,3.2-84.267c32-6.4,43.733-16,54.4-27.733
	c8.533-9.6,14.933-16,49.067-19.2c6.4-1.067,13.867-1.067,20.267-2.133C376.899,315.033,376.899,319.299,374.766,323.566z"/>
<polygon style="fill:#67C6B9;" points="441.966,295.833 440.899,287.299 440.899,287.299 "/>
<path style="fill:#F3705B;" d="M376.899,333.166c-16,0-28.8-12.8-28.8-28.8s12.8-28.8,28.8-28.8s28.8,12.8,28.8,28.8
	S392.899,333.166,376.899,333.166z"/>
<circle style="fill:#FFFFFF;" cx="376.899" cy="304.366" r="21.333"/>
<g>
	<circle style="fill:#F3705B;" cx="376.899" cy="304.366" r="12.8"/>
	<path style="fill:#F3705B;" d="M161.433,0.366c-72.533,0-131.2,58.667-131.2,131.2c0,92.8,131.2,231.467,131.2,231.467
		s131.2-138.667,131.2-231.467C292.633,59.033,233.966,0.366,161.433,0.366z"/>
</g>
<circle style="fill:#FFFFFF;" cx="161.433" cy="131.566" r="82.133"/>
<g>
</g>
<g>
</g>
<g>
</g>
<g>
</g>
<g>
</g>
<g>
</g>
<g>
</g>
<g>
</g>
<g>
</g>
<g>
</g>
<g>
</g>
<g>
</g>
<g>
</g>
<g>
</g>
<g>
</g>
</svg>
