<?xml version="1.0" encoding="utf-8"?>
<!-- Generator: Adobe Illustrator 18.1.1, SVG Export Plug-In . SVG Version: 6.00 Build 0)  -->
<svg version="1.1"  viewBox="390 100 325 175" xmlns="http://www.w3.org/2000/svg" xmlns:xlink="http://www.w3.org/1999/xlink" x="0px" y="0px" width="1096px"	 height="950px">
<g>
		<path fill="#FF9CA4" d="M569.8,319.3c-66.8,0-121.2-54.4-121.2-121.2S503,77,569.8,77C636.7,77,691,131.3,691,198.2
			S636.7,319.3,569.8,319.3z M569.8,102.2c-52.9,0-95.9,43-95.9,95.9s43,95.9,95.9,95.9c52.9,0,95.9-43,95.9-95.9
			S622.7,102.2,569.8,102.2z"/>
		<path fill="#FF9CA4" d="M570.6,277.4c-43.7,0-79.3-35.6-79.3-79.3s35.6-79.3,79.3-79.3c43.7,0,79.3,35.6,79.3,79.3
			S614.3,277.4,570.6,277.4z M570.6,143.5c-30.1,0-54.7,24.5-54.7,54.7c0,30.1,24.5,54.7,54.7,54.7c30.1,0,54.7-24.5,54.7-54.7
			C625.3,168,600.7,143.5,570.6,143.5z"/>
	
	</g>
	<path fill="#FF5461" d="M610.9,77.9c-2.3-2.3-6.1-1.2-6.9,1.9l-12.9,51.5l-13.6,52.4c-0.8,3,2,5.8,5,5l52.1-13.3l51.9-13.2
		c3.1-0.8,4.2-4.6,1.9-6.9l-25.6-25.6c-1.6-1.6-1.6-4.2,0-5.8l46.1-46.1c1.6-1.6,1.6-4.2,0-5.8l-21.3-21.3c-1.6-1.6-4.2-1.6-5.8,0
		l-46.1,46.1c-1.6,1.6-4.2,1.6-5.8,0L610.9,77.9z"/>
	<g>
		<g>
			<path fill="#FF5461" d="M443.8,179c-0.2,0.4-0.3,0.7-0.5,0.9l-17.3,33.5v29.3c0,0.8-0.6,1.3-1.3,1.3h-11.4
				c-0.7,0-1.3-0.6-1.3-1.3v-29.3l-17.3-33.5c-0.1-0.2-0.3-0.5-0.4-0.9c-0.3-0.7,0.6-1.3,1.3-1.3H408c0.8,0,1.4,0.7,1.7,1.3
				l9.4,18.6l9.3-18.6c0.4-0.7,1.1-1.3,1.8-1.3h12.2C443.2,177.6,444,178.3,443.8,179z"/>
			<path fill="#FF5461" d="M491.6,235.1c0,0,0.2,1.3-1,2.5l-5.4,5.3c-1.1,1.1-2.4,1.1-2.4,1.1h-24.7c0,0-1.3,0.1-2.5-1.1l-5.3-5.3
				c-1.1-1.1-1.1-2.5-1.1-2.5v-49c0,0-0.1-1.3,1.1-2.5l5.3-5.3c1.1-1.2,2.5-1.1,2.5-1.1h24.6c0,0,1.3-0.2,2.5,1.1l5.4,5.3
				c1.1,1.1,1,2.5,1,2.5V235.1z M465.7,191.3c-0.1,0-0.4,0-0.6,0.3l-1.6,1.5c-0.3,0.4-0.3,0.8-0.3,0.8v34.1c0,0.2,0.1,0.4,0.3,0.7
				l1.3,1.3h11.1l1.3-1.3c0.3-0.3,0.3-0.5,0.3-0.7v-34.1c0,0,0.1-0.4-0.3-0.8l-1.5-1.5c-0.3-0.3-0.6-0.3-0.7-0.3H465.7z"/>
			<path fill="#FF5461" d="M543.7,235.1c0,0,0.2,1.3-1,2.5l-5.3,5.3c-1.1,1.1-2.5,1.1-2.5,1.1l-24.7-0.1c0,0-1.3,0.2-2.5-1l-5.3-5.3
				c-1.1-1.1-1.1-2.5-1.1-2.5h0.1c0-0.1-0.1-0.1-0.1-0.2v-56.3c0-0.8,0.7-1.3,1.3-1.3H514c0.8,0,1.3,0.6,1.3,1.3v49.4
				c0,0.1,0.1,0.4,0.3,0.7l1.3,1.3h11.1l1.3-1.3c0.3-0.3,0.3-0.6,0.4-0.7v-49.4c0-0.8,0.6-1.3,1.3-1.3h11.3c0.8,0,1.3,0.6,1.3,1.3
				V235.1z"/>
		</g>
		<g>
			<g>
				<path fill="#FF5461" d="M572.7,244c0.1,0.3-0.3,0.6-0.6,0.6h-4.6c-0.3,0-0.6-0.3-0.7-0.6l-1-3.3h-8.2l-1,3.3
					c-0.1,0.3-0.4,0.6-0.7,0.6h-4.6c-0.3,0-0.7-0.3-0.6-0.6l8-27.2v0c0.2-0.4,0.3-0.6,0.6-0.6h1.8h1.3h1.8c0.3,0,0.4,0.2,0.6,0.6v0
					C567.3,225.9,570,235,572.7,244z M564.1,235.3l-2.4-8.3l-2.5,8.3H564.1z"/>
				<path fill="#FF5461" d="M592.8,230.4c0,0,0.1,0.6-0.4,1.1l-2.3,2.3l-0.1,0.1l4.1,10.2c0.1,0.3-0.3,0.6-0.6,0.6h-5.4
					c-0.3,0-0.6-0.3-0.7-0.6l-4-9.9h-1.9v9.9c0,0.3-0.2,0.6-0.6,0.6h-4.8c-0.3,0-0.6-0.3-0.6-0.6v-27.2c0-0.3,0.3-0.6,0.6-0.6H589
					c0,0,0.6-0.1,1.1,0.4l2.3,2.3c0.5,0.5,0.4,1.1,0.4,1.1V230.4z M581.5,228.2h4.3c0,0,0.2,0,0.3-0.1l0.6-0.6
					c0.2-0.2,0.1-0.3,0.1-0.3v-3.8c0,0,0-0.2-0.1-0.3l-0.6-0.6c-0.2-0.2-0.3-0.1-0.3-0.1h-4.2V228.2z"/>
				<path fill="#FF5461" d="M603.7,227.5h7.2c0.3,0,0.6,0.2,0.6,0.6v4.8c0,0.3-0.2,0.6-0.6,0.6h-7.2v5.2h9.4c0.3,0,0.6,0.2,0.6,0.6
					v4.8c0,0.3-0.3,0.6-0.6,0.6h-14.8c-0.3,0-0.6-0.2-0.6-0.6v-27.2c0-0.3,0.2-0.6,0.6-0.6h14.8c0.3,0,0.6,0.2,0.6,0.6v4.8
					c0,0.3-0.3,0.6-0.6,0.6h-9.4V227.5z"/>
			</g>
		</g>
		<g>
			<g>
				<path fill="#FF5461" d="M467.8,253.9V318c0,0.8-0.6,1.3-1.3,1.3h-11.4c-0.7,0-1.3-0.6-1.3-1.3v-25h-14.3v25
					c0,0.8-0.7,1.3-1.3,1.3h-11.4c-0.8,0-1.3-0.6-1.3-1.3v-64.1c0-0.8,0.6-1.3,1.3-1.3h11.4c0.7,0,1.3,0.6,1.3,1.3v25h14.3v-25
					c0-0.8,0.7-1.3,1.3-1.3h11.4C467.3,252.6,467.8,253.1,467.8,253.9z"/>
				<path fill="#FF5461" d="M491.2,278.9h16.9c0.8,0,1.3,0.6,1.3,1.3v11.4c0,0.8-0.6,1.3-1.3,1.3h-16.9v12.3h22.1
					c0.7,0,1.3,0.6,1.3,1.3V318c0,0.8-0.7,1.3-1.3,1.3h-34.8c-0.8,0-1.3-0.6-1.3-1.3v-64.1c0-0.8,0.6-1.3,1.3-1.3h34.8
					c0.7,0,1.3,0.6,1.3,1.3v11.4c0,0.8-0.7,1.3-1.3,1.3h-22.1V278.9z"/>
				<path fill="#FF5461" d="M564.6,285.9c0,0,0.2,1.3-1,2.5l-5.4,5.4l-0.3,0.2l9.7,24c0.2,0.7-0.7,1.3-1.3,1.3h-12.8
					c-0.8,0-1.4-0.7-1.7-1.3l-9.4-23.2H538V318c0,0.7-0.6,1.3-1.3,1.3h-11.4c-0.7,0-1.3-0.7-1.3-1.3v-64.1c0-0.8,0.7-1.3,1.3-1.3
					h30.4c0,0,1.3-0.2,2.5,1l5.4,5.4c1.1,1.1,1,2.7,1,2.7V285.9z M538,280.7h10c0.1,0,0.4,0,0.7-0.3l1.5-1.5
					c0.4-0.4,0.3-0.8,0.3-0.8v-9c0,0,0.1-0.4-0.3-0.8l-1.5-1.5c-0.4-0.4-0.8-0.3-0.8-0.3H538V280.7z"/>
				<path fill="#FF5461" d="M590.3,278.9h16.9c0.8,0,1.3,0.6,1.3,1.3v11.4c0,0.8-0.6,1.3-1.3,1.3h-16.9v12.3h22.1
					c0.7,0,1.3,0.6,1.3,1.3V318c0,0.8-0.7,1.3-1.3,1.3h-34.8c-0.8,0-1.3-0.6-1.3-1.3v-64.1c0-0.8,0.6-1.3,1.3-1.3h34.8
					c0.7,0,1.3,0.6,1.3,1.3v11.4c0,0.8-0.7,1.3-1.3,1.3h-22.1V278.9z"/>
			</g>
		</g>
	</g>
	
	
</svg>
