<?xml version="1.0" encoding="iso-8859-1"?>
<!-- Generator: Adobe Illustrator 19.0.0, SVG Export Plug-In . SVG Version: 6.00 Build 0)  -->
<svg version="1.1" id="Capa_1" xmlns="http://www.w3.org/2000/svg" xmlns:xlink="http://www.w3.org/1999/xlink" x="0px" y="0px"
	 viewBox="0 0 512 512" style="enable-background:new 0 0 512 512;" xml:space="preserve">
<g>
	<path style="fill:#FFC107;" d="M143.648,412.64c-1.856-8.64-10.272-13.984-19.008-12.288c-8.64,1.888-14.112,10.368-12.256,19.04
		l8.288,38.432C64.992,419.04,32,356.992,32,288c0-8.832-7.168-16-16-16s-16,7.168-16,16c0,74.4,34.88,144.288,92.672,189.312
		l-45.632,2.72c-8.832,0.544-15.552,8.096-15.008,16.928C32.544,505.44,39.584,512,48,512c0.32,0,0.64,0,0.96-0.032l96-5.76
		c4.672-0.288,8.96-2.56,11.808-6.272c2.816-3.712,3.872-8.512,2.88-13.056L143.648,412.64z"/>
	<path style="fill:#FFC107;" d="M368.352,99.36c1.856,8.64,10.272,13.984,19.008,12.288c8.64-1.888,14.112-10.368,12.256-19.04
		l-8.256-38.432C447.008,92.96,480,155.008,480,224c0,8.832,7.168,16,16,16s16-7.168,16-16c0-74.4-34.88-144.288-92.672-189.312
		l45.632-2.72c8.832-0.544,15.552-8.096,15.008-16.928C479.456,6.56,472.416,0,464,0c-0.32,0-0.64,0-0.96,0.032l-96,5.76
		c-4.672,0.288-8.96,2.56-11.808,6.272c-2.816,3.712-3.872,8.512-2.88,13.056L368.352,99.36z"/>
</g>
<path style="fill:#455A64;" d="M188.128,52.352L52.352,188.128c-12.48,12.48-12.48,32.768,0,45.248l226.272,226.272
	c12.48,12.48,32.768,12.48,45.248,0l135.776-135.776c12.48-12.48,12.48-32.768,0-45.248L233.376,52.352
	C220.896,39.872,200.608,39.872,188.128,52.352z"/>
<rect x="159.988" y="128.001" transform="matrix(-0.7071 0.7071 -0.7071 -0.7071 618.0168 256.0091)" style="fill:#2196F3;" width="191.998" height="255.998"/>
<g>
</g>
<g>
</g>
<g>
</g>
<g>
</g>
<g>
</g>
<g>
</g>
<g>
</g>
<g>
</g>
<g>
</g>
<g>
</g>
<g>
</g>
<g>
</g>
<g>
</g>
<g>
</g>
<g>
</g>
</svg>
