<?xml version="1.0" encoding="utf-8"?>
<!-- Generator: Adobe Illustrator 18.1.1, SVG Export Plug-In . SVG Version: 6.00 Build 0)  -->
<svg version="1.1"  viewBox="390 100 325 175" xmlns="http://www.w3.org/2000/svg" xmlns:xlink="http://www.w3.org/1999/xlink" x="0px" y="0px" width="1096px"	 height="950px">
<g>
		<path fill="#FF9CA4" d="M569.8,319.3c-66.8,0-121.2-54.4-121.2-121.2S503,77,569.8,77C636.7,77,691,131.3,691,198.2
			S636.7,319.3,569.8,319.3z M569.8,102.2c-52.9,0-95.9,43-95.9,95.9s43,95.9,95.9,95.9c52.9,0,95.9-43,95.9-95.9
			S622.7,102.2,569.8,102.2z"/>
		<path fill="#FF9CA4" d="M570.6,277.4c-43.7,0-79.3-35.6-79.3-79.3s35.6-79.3,79.3-79.3c43.7,0,79.3,35.6,79.3,79.3
			S614.3,277.4,570.6,277.4z M570.6,143.5c-30.1,0-54.7,24.5-54.7,54.7c0,30.1,24.5,54.7,54.7,54.7c30.1,0,54.7-24.5,54.7-54.7
			C625.3,168,600.7,143.5,570.6,143.5z"/>
	
	</g>
	<path fill="#FF5461" d="M610.9,77.9c-2.3-2.3-6.1-1.2-6.9,1.9l-12.9,51.5l-13.6,52.4c-0.8,3,2,5.8,5,5l52.1-13.3l51.9-13.2
		c3.1-0.8,4.2-4.6,1.9-6.9l-25.6-25.6c-1.6-1.6-1.6-4.2,0-5.8l46.1-46.1c1.6-1.6,1.6-4.2,0-5.8l-21.3-21.3c-1.6-1.6-4.2-1.6-5.8,0
		l-46.1,46.1c-1.6,1.6-4.2,1.6-5.8,0L610.9,77.9z"/>
	
		
		
		
	
	
</svg>
